<svg width="127" height="61" viewBox="0 0 127 61" fill="none" xmlns="http://www.w3.org/2000/svg">
<path d="M27.1357 29.0946C27.8625 28.5666 28.5396 28.1008 29.198 27.6038C29.9558 27.0323 30.6888 26.4298 31.4405 25.8459C31.6641 25.6719 31.9063 25.5415 32.1672 25.4421C32.4778 25.3241 32.6518 25.467 32.6145 25.7962C32.5772 26.1192 32.3909 26.3677 32.2231 26.6286C31.7448 27.3678 31.1734 28.0324 30.6019 28.6971C30.5335 28.7716 30.4528 28.84 30.4404 28.9642C30.5708 29.0387 30.664 28.9518 30.7696 28.9021C31.6889 28.4735 32.5151 27.8771 33.422 27.4237C33.7388 27.2684 34.0556 27.1193 34.4035 27.0572C34.7638 26.9951 34.9377 27.1876 34.8197 27.5417C34.7079 27.8647 34.4842 28.107 34.2606 28.3492C33.7512 28.9021 33.1176 29.2996 32.5462 29.7717C32.3163 29.9643 32.0865 30.1568 31.8629 30.3494C31.7821 30.424 31.6268 30.4923 31.6889 30.6103C31.7635 30.7532 31.9188 30.6289 32.0182 30.5979C32.7014 30.337 33.3785 30.0513 34.0618 29.7841C34.4345 29.6351 34.8135 29.486 35.2234 29.4922C35.5464 29.4984 35.6396 29.6351 35.4843 29.9208C35.2731 30.3184 34.9004 30.5606 34.5526 30.8153C33.8568 31.3122 33.1114 31.7222 32.3598 32.1322C32.2666 32.1819 32.1797 32.2316 32.1424 32.362C32.3846 32.4179 32.5834 32.2999 32.7946 32.2378C33.3475 32.0825 33.8941 31.8837 34.478 31.8589C34.6147 31.8527 34.7575 31.8589 34.8383 31.9893C34.9253 32.1446 34.8072 32.244 34.7203 32.3434C34.273 32.8528 33.7078 33.2255 33.1487 33.592C31.0988 34.9337 28.9495 36.0953 26.676 37.0271C24.7814 37.8035 22.8434 38.4496 20.8556 38.9527C18.0168 39.6671 15.1345 39.8286 12.2399 39.6547C9.5191 39.4869 6.97848 38.7043 4.76709 37.0519C3.14582 35.8406 1.94073 34.2877 1.13941 32.4241C0.567928 31.1073 0.232492 29.7282 0.0958333 28.2933C-0.165061 25.5726 0.108257 22.9015 0.897152 20.2925C1.8724 17.0562 3.56822 14.2361 5.97839 11.8694C8.18357 9.70147 10.7739 8.15474 13.6934 7.16707C15.3085 6.61422 16.9794 6.27878 18.6815 6.11106C21.4643 5.83775 24.1913 6.01789 26.8748 6.83784C27.5333 7.03662 27.6016 7.19813 27.3904 7.86279C26.7692 9.80707 26.148 11.7576 25.5331 13.7081C25.3653 14.2299 25.2411 14.2858 24.7193 14.1367C23.1726 13.7081 21.601 13.472 19.9984 13.6149C17.2465 13.8571 14.9233 14.9939 13.066 17.05C11.8112 18.4414 10.9727 20.0627 10.4695 21.8579C10.1154 23.1127 9.93529 24.3861 9.97877 25.6844C10.0347 27.3553 10.426 28.9145 11.5938 30.1941C12.5008 31.1942 13.6437 31.7843 14.973 31.9831C17.3211 32.3372 19.576 31.9024 21.7998 31.1569C22.9676 30.7656 23.9863 30.1941 24.6945 29.1505C25.0299 28.6536 25.3902 28.1753 25.7505 27.697C26.1045 27.2249 26.4027 26.7155 26.85 26.318C26.9121 26.2621 26.9742 26.2062 27.0425 26.1627C27.4587 25.9204 27.732 26.0695 27.7258 26.5478C27.7134 27.1876 27.496 27.784 27.3283 28.3865C27.2351 28.5853 27.1357 28.784 27.1357 29.0946Z" fill="#F7F7F7"/>
<path d="M121.269 38.468C120.76 38.4494 120.138 38.4929 119.517 38.437C118.144 38.3065 117.188 37.5301 116.778 36.2007C116.536 35.4056 116.498 34.5981 116.523 33.7782C116.523 33.7036 116.536 33.6291 116.523 33.5607C116.505 33.4738 116.598 33.3309 116.442 33.2998C116.324 33.275 116.306 33.3992 116.256 33.4738C115.952 33.9645 115.647 34.4615 115.306 34.9211C113.821 36.9027 111.958 38.3438 109.491 38.847C106.814 39.3936 104.361 38.9029 102.317 36.9959C101.441 36.1759 100.832 35.151 100.41 34.0204C99.8632 32.5544 99.6955 31.0388 99.7327 29.4796C99.7886 27.0011 100.292 24.622 101.248 22.3361C102.143 20.2054 103.404 18.3233 105.056 16.7082C106.566 15.2298 108.305 14.0993 110.249 13.2855C111.914 12.5898 113.653 12.155 115.449 11.9438C116.796 11.7823 118.151 11.7326 119.505 11.7947C121.965 11.9065 124.393 12.2668 126.766 12.9625C126.971 13.0246 127.033 13.0867 126.984 13.3228C126.686 14.7266 126.412 16.1367 126.127 17.5406C125.866 18.8326 125.611 20.1309 125.344 21.4229C125.12 22.5348 124.878 23.6467 124.661 24.7587C124.387 26.1377 124.102 27.5105 123.909 28.9019C123.685 30.5729 123.499 32.2438 123.381 33.921C123.288 35.3125 123.207 36.7101 123.244 38.1078C123.251 38.3749 123.195 38.4867 122.89 38.468C122.387 38.4494 121.884 38.468 121.269 38.468ZM107.696 28.3553C107.715 29.3181 107.814 30.1256 108.081 30.9083C108.51 32.1693 109.746 32.983 111.057 32.865C112.1 32.7718 112.945 32.2998 113.678 31.5978C115.032 30.3058 115.809 28.6721 116.399 26.9328C116.821 25.6904 117.07 24.3984 117.331 23.1125C117.666 21.4416 118.008 19.7706 118.356 18.1058C118.405 17.8822 118.38 17.758 118.113 17.7393C117.766 17.7145 117.418 17.6586 117.064 17.6213C115.567 17.4412 114.188 17.7953 112.914 18.5779C111.597 19.3855 110.579 20.5036 109.759 21.8019C108.473 23.8517 107.771 26.0756 107.696 28.3553Z" fill="#F7F7F7"/>
<path d="M64.9468 16.8138C65.2263 16.5839 65.394 16.2733 65.6115 16.0125C66.9283 14.4533 68.4999 13.242 70.4318 12.5463C71.3573 12.2108 72.314 12.0183 73.3016 11.95C74.6434 11.8506 75.9478 11.9437 77.1964 12.4655C78.7991 13.1302 79.824 14.3415 80.383 15.969C80.911 17.5033 80.8738 19.0811 80.7495 20.6651C80.6253 22.2242 80.3582 23.7585 80.06 25.2866C79.6563 27.3862 79.2711 29.4858 78.8736 31.5854C78.5195 33.4303 78.1592 35.2752 77.8052 37.1201C77.7306 37.5176 77.6561 37.909 77.5877 38.3065C77.5567 38.5115 77.4759 38.5985 77.2461 38.5923C76.3889 38.5736 75.5254 38.6357 74.6744 38.5239C73.2333 38.3438 71.9661 37.8344 71.2766 36.4181C70.8293 35.4988 70.7672 34.5173 70.9039 33.5359C71.2455 31.1754 71.73 28.8398 72.1524 26.4855C72.3823 25.1935 72.6742 23.9138 72.7736 22.6031C72.8357 21.7583 72.9041 20.9135 72.7426 20.0687C72.4817 18.6959 71.5872 18.0437 70.1771 18.0872C69.1025 18.1182 68.2328 18.6152 67.4688 19.3047C65.9779 20.6526 65.1083 22.3857 64.4623 24.2555C63.8411 26.0445 63.5926 27.908 63.2323 29.7529C62.7727 32.1134 62.3316 34.4801 61.8844 36.8468C61.7974 37.3126 61.6918 37.7785 61.6359 38.2506C61.6049 38.5115 61.5117 38.5861 61.2508 38.5861C59.1823 38.5736 57.1075 38.5798 55.039 38.5798C54.7719 38.5798 54.4986 38.5674 54.2315 38.5861C53.9582 38.6109 53.8898 38.5177 53.9395 38.2568C54.1321 37.2878 54.3184 36.3125 54.4986 35.3373C54.9707 32.8091 55.4428 30.2809 55.9149 27.7589C56.2752 25.8519 56.6541 23.9511 57.0019 22.0379C57.4243 19.7395 57.8529 17.4474 58.1946 15.1366C58.3188 14.3104 58.4431 13.4843 58.5487 12.6519C58.5673 12.5028 58.6232 12.4717 58.7537 12.4407C60.1575 12.1425 61.5614 11.8319 62.959 11.5276C63.8597 11.335 64.7542 11.1486 65.6549 10.9499C65.8475 10.9064 65.9096 10.9126 65.8661 11.1486C65.5431 12.9128 65.2325 14.6831 64.9219 16.4535C64.9157 16.5715 64.866 16.6833 64.9468 16.8138Z" fill="#F7F7F7"/>
<path d="M99.5527 13.1055C100.714 13.1055 101.87 13.1117 103.031 13.0993C103.317 13.0931 103.41 13.1801 103.367 13.472C103.156 14.8883 102.839 16.2735 102.056 17.5035C101.447 18.4539 100.609 18.957 99.4471 18.9384C97.9376 18.9073 96.422 18.9384 94.9125 18.926C94.6764 18.926 94.5957 19.0005 94.5522 19.2179C94.0553 21.8952 93.5583 24.5787 93.0552 27.2559C92.6887 29.2127 92.3284 31.1756 91.9619 33.1323C91.5333 35.4182 91.1295 37.7042 90.6699 39.9839C90.3779 41.4188 89.7195 42.6487 88.3467 43.3569C87.6571 43.7109 86.9179 43.8165 86.1539 43.8165C84.8618 43.8165 83.5636 43.8165 82.2715 43.8228C82.1038 43.8228 82.0106 43.8165 82.1038 43.6053C82.6256 42.4375 82.8492 41.1827 83.0853 39.9342C83.371 38.3999 83.6505 36.8656 83.9363 35.3313C84.3649 33.008 84.7811 30.6786 85.2346 28.3554C85.6383 26.2745 85.9427 24.1811 86.334 22.1002C86.5142 21.1373 86.6819 20.1683 86.862 19.2055C86.9055 18.9756 86.8434 18.9197 86.6198 18.926C85.7315 18.9384 84.837 18.926 83.9487 18.9384C83.7002 18.9446 83.6319 18.8825 83.6816 18.6278C84.0357 16.8574 84.3773 15.0809 84.7066 13.3043C84.75 13.0869 84.8867 13.1117 85.0234 13.1117C85.9054 13.1117 86.7813 13.1117 87.6634 13.1117C88.123 13.1117 88.1106 13.1055 88.1914 12.6645C88.446 11.3041 88.7069 9.94372 89.1728 8.63304C89.9617 6.42165 91.173 4.50221 92.8999 2.89957C94.3596 1.5454 96.0368 0.644695 97.9998 0.265777C98.8383 0.104271 99.6769 0.035941 100.522 0.0173057C102.292 -0.0261768 104.062 0.0173057 105.827 0.091847C106.056 0.104271 106.125 0.178812 106.131 0.402436C106.168 1.53919 106.094 2.65731 105.609 3.7071C105.087 4.83764 104.212 5.52094 102.988 5.75699C101.87 5.9744 100.758 6.19181 99.7018 6.62664C98.0743 7.29751 96.9251 8.44669 96.3474 10.099C96.0306 10.9997 95.9064 11.9626 95.7138 12.9067C95.6641 13.1366 95.8381 13.0993 95.9623 13.0993C96.7574 13.0993 97.5587 13.0993 98.3538 13.0993C98.77 13.1055 99.1614 13.1055 99.5527 13.1055Z" fill="#F7F7F7"/>
<path d="M43.9883 11.9689C46.4357 12.1925 48.6347 13.0186 50.4548 14.7083C51.8648 16.0189 52.7904 17.634 53.2998 19.4913C53.8029 21.3424 53.7719 23.2122 53.5544 25.0943C53.2998 27.2685 52.6786 29.337 51.6288 31.2626C50.2995 33.7101 48.467 35.6792 46.0506 37.0893C44.4356 38.0335 42.7087 38.636 40.8638 38.9466C39.2487 39.2199 37.6337 39.2696 36.0186 39.0274C34.0122 38.723 32.1859 37.9838 30.6144 36.6607C30.3162 36.406 30.3162 36.406 30.6578 36.2196C31.9934 35.4929 33.3041 34.7288 34.534 33.8343C35.0558 33.4554 35.5465 33.0454 35.8074 32.4304C36.0062 32.3249 35.8882 32.1447 35.9006 32.008C35.9192 31.8155 36.0062 31.8776 36.1056 31.9149C37.1367 33.2069 38.8077 33.561 40.3109 33.1572C41.8949 32.7286 42.9075 31.5981 43.7274 30.2688C44.9263 28.3183 45.4978 26.1628 45.7152 23.9079C45.827 22.7214 45.8208 21.5288 45.4108 20.3796C44.7648 18.5596 43.4914 17.721 41.7272 17.6961C40.1432 17.6713 38.8947 18.4167 37.8883 19.5969C36.5652 21.1437 35.8571 22.9823 35.3974 24.9328C35.3167 25.2621 35.2732 25.6037 35.1924 25.9329C35.1738 26.0013 35.1986 26.1566 35.0434 26.1131C34.5464 25.9516 34.0681 26.1006 33.596 26.2187C33.5463 26.1255 33.596 26.0634 33.6022 25.995C33.6768 25.467 33.5774 25.0012 33.1425 24.6595C32.6767 24.293 32.1673 24.3241 31.6517 24.5601C30.7759 24.9577 30.0801 25.6161 29.3347 26.2062C29.1422 26.3615 28.9496 26.5106 28.726 26.6846C28.6763 26.4299 28.6514 26.2063 28.5955 25.995C28.4589 25.4981 28.1483 25.1627 27.6265 25.0633C27.4339 25.026 27.3656 24.9639 27.4091 24.7403C28.0116 21.7338 29.2726 19.0565 31.3349 16.783C33.1674 14.7642 35.3912 13.3541 38.0126 12.5714C39.0437 12.267 40.0935 12.0496 41.1682 11.9626C42.1248 11.9689 43.0565 11.9689 43.9883 11.9689Z" fill="#F7F7F7"/>
<path d="M57.1511 56.0352C56.884 55.9296 56.5982 55.8861 56.3498 55.7308C55.623 55.2711 55.3932 54.5506 55.3807 53.7617C55.3683 52.8672 55.5547 52.0099 56.0827 51.2645C56.7784 50.2769 57.7847 49.842 58.9463 49.7551C59.8284 49.6929 60.698 49.8296 61.5428 50.0967C61.7416 50.1588 61.8037 50.2396 61.7602 50.4694C61.3502 52.6622 61.0334 54.8736 60.5613 57.0539C60.3688 57.9298 60.0458 58.7559 59.3625 59.3895C58.5798 60.1163 57.0082 60.3896 56.0392 59.9486C55.3062 59.6194 54.977 58.7746 55.2068 57.8925C55.4428 56.9918 56.1448 56.5756 56.8964 56.2029C56.9834 56.1656 57.1014 56.1718 57.1511 56.0352ZM59.4122 50.9042C58.6295 50.898 58.0704 51.0844 57.6542 51.5689C56.915 52.4323 56.766 53.4386 57.0455 54.5071C57.1387 54.8674 57.412 55.091 57.7971 55.1655C58.6668 55.3394 59.4556 54.768 59.6296 53.83C59.7538 53.1405 59.8781 52.4448 60.0023 51.7553C60.1576 50.9167 60.1514 50.9042 59.4122 50.9042ZM59.2445 55.8861C58.6109 56.4141 57.8468 56.6874 57.1946 57.1533C56.9523 57.3334 56.7473 57.5508 56.6355 57.8428C56.4429 58.3646 56.6355 58.8802 57.089 58.9796C57.6356 59.0976 58.1388 58.9796 58.4742 58.5199C59.0519 57.7496 59.1016 56.8116 59.2445 55.8861Z" fill="#F7F7F7"/>
<path d="M109.97 54.3206C110.013 53.0534 110.268 51.898 111.094 50.9786C112.057 49.9102 113.293 49.5561 114.697 49.8419C114.939 49.8916 115.02 49.8605 115.063 49.6121C115.169 48.9474 115.299 48.2889 115.411 47.6305C115.442 47.4379 115.517 47.3696 115.716 47.382C116.057 47.4007 116.399 47.3945 116.741 47.382C116.946 47.3758 116.989 47.4441 116.958 47.6367C116.703 49.0281 116.449 50.4196 116.213 51.8172C115.958 53.3205 115.591 54.8113 115.504 56.3456C115.492 56.5879 115.405 56.6624 115.169 56.6438C114.933 56.6252 114.691 56.6252 114.455 56.6438C114.219 56.6624 114.138 56.5879 114.163 56.3518C114.175 56.2276 114.231 56.035 114.132 55.9729C113.983 55.886 113.927 56.0909 113.827 56.1717C113.082 56.7929 112.243 57.0103 111.311 56.6997C110.485 56.4264 110.162 55.7431 110.032 54.948C109.982 54.7181 109.982 54.4883 109.97 54.3206ZM111.554 54.1156C111.541 54.4324 111.579 54.7368 111.684 55.0349C111.827 55.4139 112.094 55.6437 112.51 55.6934C113.299 55.7866 114.057 55.2523 114.2 54.4697C114.393 53.4137 114.566 52.3514 114.753 51.2954C114.784 51.1339 114.759 51.0408 114.579 51.0097C113.746 50.873 112.989 50.9973 112.392 51.6557C111.765 52.3514 111.579 53.2087 111.554 54.1156Z" fill="#F7F7F7"/>
<path d="M25.8311 53.1092C25.8435 51.8917 26.0672 50.7301 26.707 49.6679C27.7319 47.9721 30.198 47.1335 31.9497 47.8975C32.5523 48.1584 32.9995 48.5808 33.3412 49.1337C33.4033 49.2268 33.453 49.3014 33.3163 49.3821C33.0057 49.5685 32.7013 49.761 32.397 49.9598C32.2603 50.053 32.1982 49.9971 32.1299 49.8853C31.2975 48.5001 29.3221 48.8044 28.4587 49.8853C27.6884 50.8419 27.4897 51.96 27.5021 53.1465C27.5083 53.6061 27.558 54.0596 27.7443 54.482C28.117 55.3268 29.055 55.6871 30.0924 55.4013C30.6018 55.2647 31.049 55.01 31.4652 54.7056C31.6081 54.6 31.6888 54.6 31.7758 54.7553C31.869 54.9168 31.9746 55.0659 32.0802 55.2274C32.3286 55.6063 32.3348 55.6125 31.9621 55.861C30.6949 56.6996 29.3346 57.0661 27.8375 56.6002C26.8809 56.3021 26.3032 55.625 26.0175 54.6808C25.8622 54.1652 25.8125 53.6434 25.8311 53.1092Z" fill="#F7F7F7"/>
<path d="M33.0742 54.0783C33.1488 52.7428 33.4469 51.4942 34.5154 50.55C35.385 49.7798 37.0373 49.5065 38.0747 50.0096C38.7207 50.3202 39.1121 50.842 39.2177 51.5377C39.4227 52.9789 39.2115 54.3454 38.3356 55.5505C37.497 56.6997 35.6335 57.1904 34.3352 56.6003C33.5401 56.24 33.2109 55.5443 33.1177 54.7181C33.0866 54.5007 33.0866 54.2957 33.0742 54.0783ZM37.6647 52.5627C37.6709 52.2334 37.6771 51.9042 37.5778 51.5812C37.4473 51.1526 37.1678 50.929 36.7267 50.8979C35.9627 50.8482 35.472 51.2582 35.1552 51.8856C34.6831 52.8298 34.5899 53.8423 34.7328 54.8734C34.7949 55.3455 35.1055 55.6126 35.5838 55.6872C36.149 55.7679 36.7516 55.4449 37.0932 54.8548C37.5032 54.1467 37.6461 53.3702 37.6647 52.5627Z" fill="#F7F7F7"/>
<path d="M109.137 52.4012C109.125 53.3889 108.945 54.3331 108.429 55.1903C107.709 56.383 106.603 56.8613 105.261 56.8178C103.857 56.7743 103.112 56.0662 102.975 54.6685C102.851 53.4262 103.075 52.2335 103.795 51.1775C104.603 49.9849 106.361 49.4258 107.715 49.9103C108.572 50.2147 109.088 50.9539 109.137 51.9354C109.15 52.0906 109.137 52.2459 109.137 52.4012ZM107.529 52.5006C107.529 52.3453 107.535 52.19 107.529 52.0347C107.473 51.0284 106.622 50.5688 105.746 51.0781C105.528 51.2024 105.342 51.3701 105.212 51.5875C104.559 52.6187 104.429 53.7554 104.621 54.9294C104.715 55.4885 105.205 55.7804 105.789 55.6935C106.361 55.6065 106.74 55.2711 107.007 54.7803C107.379 54.0598 107.51 53.2957 107.529 52.5006Z" fill="#F7F7F7"/>
<path d="M119.635 56.8301C118.238 56.8549 117.337 56.0661 117.213 54.6746C117.095 53.3142 117.337 52.0346 118.219 50.9413C119.033 49.9226 120.753 49.4629 121.977 49.9226C122.704 50.1959 123.182 50.7239 123.3 51.4756C123.549 53.0285 123.306 54.4883 122.269 55.7306C121.673 56.4512 120.747 56.8115 119.635 56.8301ZM121.766 52.5005C121.766 52.2023 121.778 51.9042 121.691 51.606C121.549 51.1215 121.269 50.9103 120.766 50.8916C120.114 50.873 119.654 51.1898 119.35 51.7302C118.803 52.7055 118.672 53.7615 118.846 54.8548C118.94 55.4449 119.362 55.7368 119.965 55.6871C120.567 55.6374 120.971 55.2834 121.244 54.774C121.623 54.0659 121.76 53.3018 121.766 52.5005Z" fill="#F7F7F7"/>
<path d="M81.377 54.1219C81.4019 52.9914 81.6255 51.9292 82.3399 51.0161C83.3027 49.7799 85.365 49.3575 86.5949 50.1464C87.1105 50.4756 87.4149 50.9539 87.5019 51.5316C87.7068 52.9479 87.5018 54.3021 86.657 55.4947C85.7377 56.793 84.0233 57.0601 82.8492 56.6874C81.9672 56.4079 81.433 55.6128 81.3833 54.594C81.3708 54.4325 81.377 54.2772 81.377 54.1219ZM82.9921 54.0226C82.9921 54.2586 82.9673 54.5009 82.9983 54.7369C83.0853 55.4637 83.6071 55.824 84.3214 55.6687C84.5885 55.6128 84.8184 55.4823 85.0296 55.3022C85.8744 54.5568 86.1663 52.3516 85.8309 51.4757C85.7004 51.1465 85.452 50.9477 85.0793 50.9042C84.4208 50.8359 83.9301 51.1154 83.5822 51.6559C83.1101 52.3702 82.9797 53.184 82.9921 54.0226Z" fill="#F7F7F7"/>
<path d="M64.953 56.8302C63.4435 56.8551 62.5056 55.942 62.4807 54.4263C62.4621 53.2647 62.6546 52.1652 63.3193 51.1775C64.1455 49.9414 66.1022 49.3699 67.4439 49.9849C68.0899 50.283 68.4937 50.811 68.6055 51.5005C68.8291 52.9168 68.6242 54.271 67.7794 55.4636C67.1395 56.3644 66.1705 56.8116 64.953 56.8302ZM67.0712 52.3702C67.0836 52.0907 67.0401 51.8111 66.9532 51.544C66.8165 51.134 66.537 50.9291 66.1022 50.898C65.4499 50.8483 64.984 51.1589 64.661 51.6807C64.0771 52.6435 63.9715 53.7057 64.1082 54.7928C64.1952 55.5009 64.7791 55.8364 65.4748 55.6562C65.9593 55.532 66.2761 55.209 66.5121 54.7928C66.9408 54.0349 67.0401 53.2088 67.0712 52.3702Z" fill="#F7F7F7"/>
<path d="M42.4414 50.755C42.8141 50.3699 43.2303 50.0531 43.7459 49.8916C44.1745 49.7549 44.6155 49.6866 45.0628 49.7736C45.9945 49.9537 46.4294 50.519 46.3797 51.4694C46.3238 52.4198 46.0815 53.3453 45.9324 54.2833C45.8268 54.948 45.684 55.6064 45.5846 56.2711C45.5411 56.5444 45.4603 56.6686 45.1622 56.6376C44.8516 56.6065 44.541 56.6189 44.2304 56.6314C44.0192 56.6376 43.9695 56.5879 44.0068 56.3705C44.2428 55.0908 44.4602 53.805 44.6901 52.5254C44.7398 52.2396 44.7584 51.9477 44.746 51.6619C44.7273 51.165 44.4789 50.9352 43.9757 50.9352C43.1433 50.9414 42.4414 51.5377 42.2861 52.3887C42.0501 53.6994 41.8202 55.0163 41.609 56.3332C41.5655 56.5817 41.4848 56.6624 41.2363 56.6376C40.9257 56.6127 40.6151 56.6189 40.3046 56.6376C40.0809 56.65 40.0188 56.5879 40.0623 56.3643C40.2238 55.4822 40.3853 54.5939 40.5282 53.7056C40.7207 52.5316 41.0127 51.3762 41.0562 50.1835C41.0624 49.9972 41.1369 49.9289 41.3233 49.9413C41.5904 49.9537 41.8637 49.9537 42.1308 49.9413C42.3296 49.9289 42.3793 50.0158 42.3669 50.196C42.3544 50.3699 42.3669 50.5438 42.3669 50.7115C42.3979 50.7302 42.4228 50.7426 42.4414 50.755Z" fill="#F7F7F7"/>
<path d="M90.6945 50.7739C91.0113 50.4571 91.3157 50.2024 91.6822 50.0285C92.2723 49.7551 92.8811 49.6557 93.5271 49.811C94.2228 49.985 94.6141 50.4571 94.6576 51.1838C94.7011 51.8734 94.521 52.538 94.4092 53.2089C94.2352 54.2462 94.0302 55.2836 93.8625 56.3272C93.819 56.5757 93.7321 56.6564 93.4836 56.6378C93.173 56.6191 92.8624 56.6129 92.5518 56.6378C92.2972 56.6564 92.2599 56.5695 92.3034 56.3396C92.5084 55.2339 92.7009 54.122 92.8935 53.0101C92.9494 52.6747 93.0177 52.3392 93.0426 51.9976C93.1109 51.1155 92.7693 50.7242 91.7567 51.0223C91.0548 51.2273 90.6821 51.7491 90.5641 52.4697C90.3467 53.7617 90.1106 55.0538 89.8932 56.352C89.8559 56.5695 89.7814 56.6502 89.5578 56.6316C89.2285 56.6129 88.8931 56.6192 88.5639 56.6316C88.3713 56.6378 88.3092 56.5881 88.3465 56.3893C88.6508 54.6935 88.9552 52.9915 89.241 51.2894C89.3031 50.923 89.3217 50.5502 89.3466 50.1775C89.359 49.9912 89.4335 49.9291 89.6199 49.9415C89.8994 49.9539 90.1789 49.9539 90.4585 49.9415C90.6386 49.9353 90.6945 50.0098 90.6821 50.1837C90.6635 50.3577 90.6262 50.5316 90.6945 50.7739Z" fill="#F7F7F7"/>
<path d="M50.6099 51.1526C50.3615 51.1899 49.9826 51.016 49.7962 51.2148C49.6285 51.3887 49.6595 51.7614 49.6098 52.0471C49.4608 52.8733 49.3179 53.6933 49.175 54.5194C49.1626 54.5878 49.1502 54.6623 49.144 54.7368C49.0943 55.4823 49.1812 55.7431 50.1378 55.6251C50.1689 55.6189 50.2 55.6003 50.2248 55.6003C50.4298 55.5816 50.6969 55.3394 50.7901 55.4574C50.9578 55.6686 50.9951 55.9854 51.0882 56.2587C51.1193 56.3643 51.0448 56.4078 50.964 56.4389C50.1503 56.8054 49.3055 56.9544 48.4296 56.7122C47.8333 56.5445 47.5227 56.0972 47.5289 55.4574C47.5351 54.6996 47.7277 53.9666 47.8519 53.2212C48.1687 51.3576 48.5104 49.5003 48.8334 47.6368C48.8644 47.4504 48.9265 47.3697 49.1315 47.3821C49.4918 47.4007 49.8583 47.3945 50.2186 47.3821C50.3863 47.3759 50.4298 47.4194 50.3925 47.5933C50.2621 48.2642 50.1565 48.935 50.026 49.6059C49.9826 49.8482 50.0074 49.9662 50.2994 49.9538C50.7093 49.9289 51.1255 49.9538 51.5417 49.9476C51.7281 49.9413 51.7778 50.0097 51.7467 50.1836C51.697 50.4445 51.6535 50.7116 51.61 50.9787C51.5914 51.1216 51.5106 51.1651 51.374 51.1589C51.1379 51.1464 50.8957 51.1526 50.6099 51.1526Z" fill="#F7F7F7"/>
<path d="M100.199 56.8303C100.118 56.8241 99.9503 56.8241 99.7888 56.7992C98.944 56.6688 98.5402 56.1905 98.565 55.327C98.5837 54.6624 98.7452 54.0163 98.857 53.3641C99.1862 51.4509 99.5403 49.5376 99.8695 47.6244C99.9068 47.4256 99.9751 47.3697 100.168 47.3759C100.478 47.3884 100.789 47.3822 101.099 47.3822C101.472 47.3822 101.466 47.3822 101.404 47.7362C101.292 48.345 101.18 48.9537 101.075 49.5687C101.006 49.9476 101.012 49.9476 101.398 49.9476C101.783 49.9476 102.162 49.9538 102.547 49.9476C102.746 49.9414 102.839 49.9849 102.777 50.2085C102.702 50.5067 102.746 50.9104 102.565 51.0906C102.36 51.2956 101.957 51.1341 101.64 51.1589C101.373 51.1775 101.044 51.0595 100.851 51.2086C100.652 51.3577 100.714 51.7056 100.665 51.9664C100.503 52.8175 100.36 53.6747 100.205 54.5319C100.193 54.6002 100.186 54.6748 100.18 54.7493C100.099 55.5817 100.329 55.7494 101.205 55.6252C101.304 55.6128 101.416 55.5879 101.497 55.532C101.808 55.3394 101.895 55.5009 101.975 55.7867C102.155 56.4389 102.162 56.4513 101.503 56.6439C101.106 56.7495 100.702 56.8303 100.199 56.8303Z" fill="#F7F7F7"/>
<path d="M76.9977 53.805C76.9977 54.1901 77.0101 54.5753 77.1902 54.9293C77.4822 55.5194 78.1282 55.7431 78.9109 55.5505C79.2339 55.4697 79.5445 55.3517 79.8178 55.1654C79.942 55.0846 80.0104 55.0908 80.0663 55.2399C80.1533 55.4697 80.2589 55.6934 80.3645 55.917C80.4266 56.0412 80.4017 56.1406 80.2837 56.2027C79.1842 56.7991 78.035 57.0662 76.83 56.6127C75.8982 56.2586 75.5193 55.4449 75.4323 54.5069C75.3453 53.5689 75.4696 52.6558 75.8423 51.78C76.5007 50.2456 78.3891 49.376 79.9731 49.8978C80.5135 50.0779 80.9359 50.4009 81.2403 50.8917C81.3273 51.0345 81.3335 51.1215 81.1782 51.2147C80.9297 51.3638 80.6937 51.5315 80.4514 51.693C80.3707 51.7489 80.2899 51.7924 80.2154 51.6744C79.8675 51.1277 79.3706 50.9041 78.7308 51.0035C78.0599 51.1091 77.6313 51.5377 77.3455 52.1216C77.0784 52.6496 76.9915 53.2149 76.9977 53.805Z" fill="#F7F7F7"/>
<path d="M52.7345 56.6315C52.5668 56.6315 52.3991 56.619 52.2376 56.6315C52.0015 56.6563 51.958 56.5569 52.0015 56.3457C52.2251 55.1344 52.4363 53.9231 52.6475 52.7118C52.7904 51.9167 52.9333 51.1278 53.0575 50.3265C53.101 50.0532 53.1818 49.8979 53.5048 49.9352C53.8091 49.9662 54.1259 49.9476 54.4365 49.9414C54.6229 49.9352 54.6974 49.9787 54.6602 50.1899C54.2875 52.277 53.921 54.3642 53.5545 56.4513C53.5296 56.5942 53.4675 56.6439 53.3308 56.6377C53.1259 56.6253 52.9333 56.6315 52.7345 56.6315Z" fill="#F7F7F7"/>
<path d="M71.2207 55.6995C71.1896 55.7554 71.1648 55.8051 71.1275 55.861C70.5809 56.7245 70.028 57.5879 69.5 58.4576C69.2578 58.8551 69.0217 58.5321 68.7857 58.4886C68.5061 58.4389 68.6614 58.2402 68.6987 58.0973C68.9161 57.3084 69.1522 56.5257 69.4814 55.7803C69.823 55.0162 70.5312 54.9044 71.1089 55.5194C71.1648 55.5691 71.2331 55.6064 71.2207 55.6995Z" fill="#F7F7F7"/>
<path d="M53.3494 48.1462C53.3494 47.5871 53.8028 47.1399 54.3743 47.1336C54.834 47.1274 55.1508 47.4318 55.1508 47.8666C55.1508 48.4133 54.6725 48.8605 54.101 48.8605C53.6475 48.8605 53.3556 48.581 53.3494 48.1462Z" fill="#F7F7F7"/>
<path d="M43.9883 11.9689C43.0565 11.9689 42.1185 11.9689 41.1868 11.9689C42.1247 11.8881 43.0565 11.8695 43.9883 11.9689Z" fill="#F7F7F7"/>
<path d="M36.0994 31.9211C36 31.8838 35.913 31.8217 35.8944 32.0143C35.882 32.1571 36 32.3373 35.8012 32.4367C35.9254 32.0143 35.8385 31.6229 35.5527 31.2689C35.5776 31.2564 35.6086 31.2502 35.6335 31.2378C35.7888 31.4676 35.9441 31.6913 36.0994 31.9211Z" fill="#F7F7F7"/>
</svg>
