<svg width="184" height="87" viewBox="0 0 184 87" fill="none" xmlns="http://www.w3.org/2000/svg">
<path d="M39.2414 42.0741C40.2924 41.3106 41.2715 40.6368 42.2237 39.9182C43.3196 39.0918 44.3796 38.2204 45.4665 37.376C45.7899 37.1245 46.1403 36.9359 46.5176 36.7921C46.9667 36.6215 47.2182 36.8281 47.1643 37.3042C47.1104 37.7713 46.8409 38.1306 46.5984 38.5079C45.9067 39.5768 45.0803 40.538 44.2539 41.4992C44.155 41.607 44.0383 41.7058 44.0203 41.8855C44.2089 41.9933 44.3437 41.8675 44.4964 41.7956C45.8259 41.1758 47.0206 40.3135 48.3321 39.6577C48.7902 39.4331 49.2484 39.2175 49.7514 39.1277C50.2724 39.0379 50.524 39.3163 50.3533 39.8284C50.1916 40.2955 49.8682 40.6458 49.5448 40.9962C48.8082 41.7956 47.8919 42.3705 47.0655 43.0532C46.7331 43.3317 46.4008 43.6102 46.0774 43.8887C45.9606 43.9965 45.736 44.0953 45.8259 44.2659C45.9337 44.4726 46.1582 44.2929 46.302 44.248C47.2901 43.8707 48.2692 43.4575 49.2574 43.0712C49.7963 42.8556 50.3443 42.64 50.9372 42.649C51.4043 42.658 51.539 42.8556 51.3145 43.2688C51.009 43.8438 50.4701 44.1941 49.967 44.5624C48.9609 45.281 47.883 45.8739 46.796 46.4668C46.6613 46.5386 46.5355 46.6105 46.4816 46.7991C46.832 46.88 47.1194 46.7093 47.4248 46.6195C48.2243 46.3949 49.0148 46.1075 49.8592 46.0715C50.0568 46.0625 50.2634 46.0715 50.3802 46.2602C50.506 46.4847 50.3353 46.6285 50.2095 46.7722C49.5628 47.5088 48.7453 48.0478 47.9369 48.5778C44.9725 50.5181 41.8644 52.1979 38.5766 53.5453C35.8368 54.6682 33.0341 55.6024 30.1596 56.3301C26.0544 57.3631 21.8863 57.5966 17.7003 57.3451C13.7657 57.1026 10.0917 55.9707 6.89376 53.5813C4.54921 51.8296 2.80652 49.5839 1.64772 46.889C0.82129 44.9846 0.336211 42.9904 0.138586 40.9153C-0.238698 36.9808 0.156552 33.1181 1.29739 29.3453C2.70771 24.6651 5.16005 20.5869 8.64544 17.1644C11.8344 14.0293 15.5803 11.7926 19.8023 10.3643C22.1378 9.56481 24.5542 9.07973 27.0156 8.83719C31.0399 8.44194 34.9834 8.70245 38.8641 9.8882C39.8163 10.1757 39.9151 10.4092 39.6097 11.3704C38.7114 14.182 37.8131 17.0027 36.9238 19.8233C36.6812 20.5779 36.5016 20.6588 35.747 20.4432C33.5102 19.8233 31.2376 19.482 28.92 19.6886C24.9405 20.0389 21.5809 21.6828 18.895 24.6562C17.0804 26.6684 15.8677 29.0129 15.1401 31.609C14.6281 33.4235 14.3676 35.265 14.4305 37.1425C14.5113 39.5589 15.0772 41.8136 16.766 43.6641C18.0775 45.1103 19.7304 45.9637 21.6528 46.2512C25.0483 46.7632 28.3091 46.1344 31.525 45.0564C33.2138 44.4905 34.687 43.6641 35.7111 42.155C36.1961 41.4363 36.7172 40.7446 37.2382 40.0529C37.7502 39.3702 38.1814 38.6336 38.8282 38.0587C38.918 37.9779 39.0078 37.897 39.1066 37.8342C39.7085 37.4838 40.1037 37.6994 40.0947 38.3911C40.0768 39.3163 39.7624 40.1787 39.5198 41.0501C39.3851 41.3375 39.2414 41.625 39.2414 42.0741Z" fill="#0292DC"/>
<path d="M175.369 55.6295C174.632 55.6026 173.734 55.6654 172.836 55.5846C170.851 55.3959 169.467 54.2731 168.874 52.3507C168.524 51.2009 168.47 50.0331 168.506 48.8474C168.506 48.7396 168.524 48.6318 168.506 48.533C168.479 48.4072 168.614 48.2006 168.389 48.1557C168.219 48.1198 168.192 48.2994 168.12 48.4072C167.68 49.1169 167.239 49.8355 166.745 50.5002C164.598 53.3658 161.904 55.4498 158.337 56.1775C154.466 56.968 150.917 56.2583 147.962 53.5005C146.695 52.3148 145.815 50.8326 145.204 49.1977C144.414 47.0777 144.171 44.8859 144.225 42.6312C144.306 39.047 145.034 35.6065 146.417 32.3008C147.71 29.2196 149.534 26.4978 151.923 24.1622C154.106 22.0243 156.622 20.3894 159.433 19.2126C161.841 18.2065 164.356 17.5777 166.952 17.2723C168.901 17.0387 170.86 16.9669 172.818 17.0567C176.375 17.2184 179.887 17.7394 183.319 18.7455C183.615 18.8353 183.705 18.9252 183.633 19.2665C183.202 21.2967 182.807 23.3358 182.394 25.3659C182.016 27.2344 181.648 29.1118 181.262 30.9803C180.938 32.5882 180.588 34.1962 180.274 35.8041C179.878 37.7983 179.465 39.7836 179.187 41.7958C178.863 44.2122 178.594 46.6286 178.423 49.054C178.288 51.0662 178.172 53.0873 178.226 55.1085C178.235 55.4948 178.154 55.6564 177.714 55.6295C176.986 55.6026 176.258 55.6295 175.369 55.6295ZM155.741 41.0053C155.768 42.3976 155.912 43.5654 156.298 44.6973C156.918 46.5208 158.706 47.6976 160.601 47.5269C162.11 47.3921 163.332 46.7094 164.392 45.6944C166.35 43.8259 167.473 41.4634 168.326 38.9482C168.937 37.1516 169.296 35.2831 169.674 33.4236C170.159 31.0072 170.653 28.5908 171.156 26.1834C171.228 25.86 171.192 25.6803 170.806 25.6534C170.303 25.6175 169.8 25.5366 169.288 25.4827C167.123 25.2222 165.128 25.7342 163.287 26.8661C161.383 28.0339 159.909 29.6508 158.724 31.5282C156.864 34.4926 155.849 37.7085 155.741 41.0053Z" fill="#0292DC"/>
<path d="M93.9206 24.3148C94.3248 23.9824 94.5674 23.5333 94.8818 23.156C96.7862 20.9013 99.0588 19.1496 101.853 18.1435C103.191 17.6585 104.574 17.38 106.003 17.2812C107.943 17.1374 109.829 17.2722 111.635 18.0268C113.953 18.9879 115.435 20.7396 116.243 23.0931C117.007 25.3119 116.953 27.5936 116.773 29.8842C116.594 32.139 116.207 34.3578 115.776 36.5676C115.192 39.6038 114.635 42.64 114.06 45.6763C113.548 48.3442 113.027 51.0121 112.515 53.6801C112.408 54.255 112.3 54.8209 112.201 55.3958C112.156 55.6923 112.039 55.818 111.707 55.809C110.467 55.7821 109.219 55.8719 107.988 55.7102C105.904 55.4497 104.071 54.7131 103.074 52.665C102.427 51.3355 102.338 49.9162 102.535 48.4969C103.029 45.0834 103.73 41.7058 104.341 38.3013C104.673 36.4328 105.095 34.5823 105.239 32.6869C105.329 31.4652 105.428 30.2436 105.194 29.0219C104.817 27.0366 103.523 26.0934 101.484 26.1563C99.9302 26.2012 98.6726 26.9199 97.5677 27.917C95.4118 29.8663 94.1542 32.3725 93.2199 35.0764C92.3216 37.6635 91.9623 40.3584 91.4413 43.0263C90.7766 46.4398 90.1388 49.8623 89.492 53.2848C89.3662 53.9586 89.2135 54.6323 89.1327 55.315C89.0878 55.6923 88.953 55.8001 88.5757 55.8001C85.5844 55.7821 82.5841 55.7911 79.5928 55.7911C79.2065 55.7911 78.8113 55.7731 78.425 55.8001C78.0298 55.836 77.9309 55.7012 78.0028 55.324C78.2813 53.9226 78.5508 52.5123 78.8113 51.102C79.494 47.4459 80.1767 43.7899 80.8594 40.1428C81.3804 37.385 81.9284 34.6362 82.4314 31.8695C83.0422 28.5458 83.6621 25.2311 84.1561 21.8894C84.3358 20.6947 84.5155 19.5 84.6682 18.2962C84.6951 18.0806 84.776 18.0357 84.9646 17.9908C86.9947 17.5596 89.0249 17.1105 91.046 16.6703C92.3486 16.3919 93.6421 16.1224 94.9447 15.8349C95.2231 15.772 95.313 15.781 95.2501 16.1224C94.783 18.6735 94.3338 21.2337 93.8847 23.7938C93.8757 23.9645 93.8038 24.1262 93.9206 24.3148Z" fill="#0292DC"/>
<path d="M143.965 18.9521C145.644 18.9521 147.315 18.9611 148.995 18.9431C149.408 18.9341 149.543 19.0599 149.48 19.4821C149.175 21.5302 148.717 23.5334 147.585 25.312C146.704 26.6864 145.492 27.414 143.812 27.3871C141.629 27.3422 139.437 27.3871 137.254 27.3691C136.913 27.3691 136.796 27.4769 136.733 27.7913C136.015 31.663 135.296 35.5436 134.568 39.4153C134.038 42.2449 133.517 45.0835 132.987 47.9131C132.368 51.2189 131.784 54.5246 131.119 57.8213C130.697 59.8964 129.745 61.675 127.759 62.6991C126.762 63.2111 125.693 63.3638 124.588 63.3638C122.72 63.3638 120.842 63.3638 118.974 63.3728C118.731 63.3728 118.597 63.3638 118.731 63.0584C119.486 61.3696 119.809 59.555 120.151 57.7495C120.564 55.5307 120.968 53.3119 121.381 51.0931C122.001 47.7335 122.603 44.3649 123.259 41.0052C123.843 37.996 124.283 34.9687 124.849 31.9594C125.109 30.5671 125.352 29.1657 125.612 27.7734C125.675 27.441 125.585 27.3601 125.262 27.3691C123.978 27.3871 122.684 27.3691 121.399 27.3871C121.04 27.3961 120.941 27.3062 121.013 26.9379C121.525 24.3778 122.019 21.8087 122.495 19.2396C122.558 18.9252 122.756 18.9611 122.953 18.9611C124.229 18.9611 125.496 18.9611 126.771 18.9611C127.436 18.9611 127.418 18.9521 127.535 18.3143C127.903 16.347 128.28 14.3798 128.954 12.4844C130.095 9.28645 131.847 6.51072 134.344 4.19312C136.455 2.23483 138.88 0.932304 141.719 0.384344C142.932 0.150787 144.144 0.0519749 145.366 0.025026C147.926 -0.0378546 150.486 0.0250261 153.037 0.132821C153.37 0.150787 153.469 0.258583 153.478 0.581969C153.531 2.22585 153.424 3.84278 152.723 5.3609C151.968 6.9958 150.702 7.98392 148.932 8.32527C147.315 8.63968 145.707 8.95408 144.18 9.58289C141.827 10.553 140.165 12.2149 139.329 14.6044C138.871 15.9069 138.692 17.2992 138.413 18.6646C138.341 18.997 138.593 18.9431 138.772 18.9431C139.922 18.9431 141.081 18.9431 142.231 18.9431C142.833 18.9521 143.399 18.9521 143.965 18.9521Z" fill="#0292DC"/>
<path d="M63.6121 17.3083C67.1514 17.6317 70.3314 18.8264 72.9634 21.2698C75.0025 23.1652 76.341 25.5007 77.0776 28.1867C77.8052 30.8636 77.7603 33.5674 77.4459 36.2893C77.0776 39.4333 76.1793 42.4246 74.6611 45.2093C72.7388 48.7486 70.0888 51.5962 66.5945 53.6353C64.2589 55.0008 61.7616 55.8721 59.0937 56.3213C56.7581 56.7165 54.4226 56.7884 52.087 56.438C49.1855 55.9979 46.5445 54.9289 44.2718 53.0155C43.8406 52.6472 43.8406 52.6472 44.3347 52.3777C46.266 51.3267 48.1614 50.2218 49.9401 48.9283C50.6946 48.3803 51.4043 47.7875 51.7816 46.8981C52.069 46.7454 51.8983 46.4849 51.9163 46.2873C51.9433 46.0088 52.069 46.0987 52.2128 46.1526C53.7039 48.021 56.1203 48.533 58.2942 47.9491C60.5849 47.3293 62.0491 45.6944 63.2348 43.7721C64.9685 40.9514 65.795 37.8343 66.1094 34.5735C66.2711 32.8578 66.2621 31.1331 65.6692 29.4712C64.735 26.8392 62.8935 25.6265 60.3423 25.5906C58.0517 25.5546 56.2461 26.6326 54.7909 28.3394C52.8775 30.5761 51.8534 33.2351 51.1887 36.0557C51.0719 36.5318 51.009 37.0259 50.8923 37.502C50.8653 37.6008 50.9012 37.8254 50.6767 37.7625C49.958 37.5289 49.2663 37.7445 48.5836 37.9152C48.5118 37.7804 48.5836 37.6906 48.5926 37.5918C48.7004 36.8283 48.5567 36.1545 47.9279 35.6605C47.2542 35.1305 46.5176 35.1754 45.772 35.5167C44.5054 36.0916 43.4993 37.0438 42.4213 37.8972C42.1429 38.1218 41.8644 38.3374 41.541 38.5889C41.4691 38.2206 41.4332 37.8972 41.3524 37.5918C41.1547 36.8732 40.7056 36.3881 39.951 36.2444C39.6726 36.1905 39.5737 36.1006 39.6366 35.7772C40.508 31.4295 42.3315 27.5578 45.3138 24.2701C47.9638 21.3506 51.1797 19.3115 54.9705 18.1796C56.4617 17.7395 57.9798 17.4251 59.5339 17.2993C60.9172 17.3083 62.2647 17.3083 63.6121 17.3083Z" fill="#0292DC"/>
<path d="M82.647 81.0334C82.2607 80.8807 81.8475 80.8178 81.4882 80.5932C80.4372 79.9285 80.1048 78.8865 80.0868 77.7456C80.0689 76.4521 80.3384 75.2124 81.1019 74.1345C82.108 72.7062 83.5632 72.0774 85.2431 71.9516C86.5186 71.8618 87.7763 72.0594 88.9979 72.4457C89.2854 72.5355 89.3752 72.6523 89.3123 72.9847C88.7195 76.1556 88.2613 79.3536 87.5786 82.5066C87.3002 83.7732 86.833 84.9679 85.8449 85.8842C84.7131 86.9352 82.4404 87.3304 81.039 86.6926C79.979 86.2165 79.503 84.9949 79.8353 83.7193C80.1767 82.4168 81.1917 81.8149 82.2787 81.2759C82.4044 81.222 82.5751 81.231 82.647 81.0334ZM85.9168 73.6135C84.7849 73.6045 83.9765 73.874 83.3746 74.5746C82.3056 75.8233 82.09 77.2785 82.4943 78.8236C82.629 79.3446 83.0243 79.668 83.5812 79.7758C84.8388 80.0273 85.9797 79.2009 86.2312 77.8444C86.4108 76.8473 86.5905 75.8412 86.7702 74.8441C86.9947 73.6314 86.9857 73.6135 85.9168 73.6135ZM85.6742 80.8178C84.758 81.5813 83.6531 81.9766 82.7099 82.6503C82.3595 82.9108 82.0631 83.2252 81.9014 83.6474C81.6229 84.402 81.9014 85.1476 82.5572 85.2913C83.3477 85.462 84.0753 85.2913 84.5604 84.6266C85.3958 83.5127 85.4676 82.1563 85.6742 80.8178Z" fill="#737270"/>
<path d="M159.029 78.5541C159.092 76.7215 159.46 75.0507 160.655 73.7212C162.047 72.1762 163.835 71.6641 165.865 72.0774C166.215 72.1492 166.332 72.1043 166.395 71.745C166.548 70.7838 166.736 69.8316 166.898 68.8794C166.943 68.601 167.051 68.5021 167.338 68.5201C167.832 68.5471 168.326 68.5381 168.82 68.5201C169.117 68.5111 169.18 68.6099 169.135 68.8884C168.767 70.9006 168.398 72.9128 168.057 74.9339C167.689 77.1078 167.159 79.2637 167.033 81.4825C167.015 81.8328 166.889 81.9406 166.548 81.9137C166.206 81.8867 165.856 81.8867 165.515 81.9137C165.173 81.9406 165.057 81.8328 165.093 81.4915C165.11 81.3118 165.191 81.0334 165.048 80.9435C164.832 80.8178 164.751 81.1142 164.607 81.231C163.529 82.1293 162.317 82.4437 160.969 81.9945C159.775 81.5993 159.307 80.6112 159.119 79.4613C159.047 79.129 159.047 78.7966 159.029 78.5541ZM161.32 78.2576C161.302 78.7158 161.356 79.1559 161.508 79.5871C161.715 80.1351 162.101 80.4674 162.703 80.5393C163.844 80.674 164.94 79.9015 165.146 78.7697C165.425 77.2426 165.676 75.7065 165.946 74.1794C165.991 73.9458 165.955 73.8111 165.694 73.7662C164.491 73.5685 163.395 73.7482 162.532 74.7004C161.625 75.7065 161.356 76.9461 161.32 78.2576Z" fill="#737270"/>
<path d="M37.355 76.8022C37.3729 75.0416 37.6963 73.3618 38.6216 71.8257C40.1037 69.3733 43.67 68.1606 46.2032 69.2655C47.0745 69.6428 47.7213 70.2537 48.2154 71.0531C48.3052 71.1879 48.377 71.2957 48.1794 71.4125C47.7303 71.6819 47.2901 71.9604 46.8499 72.2479C46.6523 72.3826 46.5625 72.3018 46.4637 72.1401C45.26 70.1369 42.4034 70.577 41.1547 72.1401C40.0409 73.5234 39.7534 75.1404 39.7714 76.8561C39.7804 77.5209 39.8522 78.1766 40.1217 78.7875C40.6607 80.0091 42.0171 80.5301 43.5173 80.1169C44.2539 79.9193 44.9006 79.551 45.5025 79.1108C45.7091 78.9581 45.8259 78.9581 45.9516 79.1827C46.0864 79.4163 46.2391 79.6319 46.3918 79.8654C46.7511 80.4134 46.7601 80.4224 46.2211 80.7817C44.3886 81.9944 42.4213 82.5244 40.2565 81.8506C38.8731 81.4195 38.0377 80.4403 37.6245 79.0749C37.3999 78.3293 37.328 77.5748 37.355 76.8022Z" fill="#737270"/>
<path d="M47.8291 78.2037C47.9369 76.2724 48.368 74.4668 49.9131 73.1014C51.1707 71.9875 53.5602 71.5923 55.0603 72.3199C55.9946 72.7691 56.5605 73.5236 56.7132 74.5297C57.0096 76.6138 56.7042 78.59 55.4376 80.3327C54.2249 81.9945 51.5301 82.7042 49.6526 81.8508C48.5028 81.3298 48.0267 80.3237 47.892 79.129C47.847 78.8146 47.847 78.5181 47.8291 78.2037ZM54.4675 76.0119C54.4765 75.5358 54.4854 75.0597 54.3417 74.5926C54.1531 73.9728 53.7488 73.6494 53.111 73.6045C52.0061 73.5326 51.2965 74.1255 50.8384 75.0328C50.1557 76.3982 50.0209 77.8624 50.2275 79.3536C50.3173 80.0363 50.7665 80.4225 51.4582 80.5303C52.2756 80.6471 53.147 80.18 53.641 79.3266C54.2339 78.3026 54.4405 77.1797 54.4675 76.0119Z" fill="#737270"/>
<path d="M157.825 75.7782C157.807 77.2065 157.547 78.5719 156.801 79.8115C155.759 81.5363 154.16 82.228 152.22 82.1651C150.19 82.1022 149.112 81.0781 148.914 79.057C148.735 77.2604 149.058 75.5357 150.1 74.0086C151.268 72.2838 153.81 71.4754 155.768 72.176C157.008 72.6162 157.753 73.6852 157.825 75.1045C157.843 75.329 157.825 75.5536 157.825 75.7782ZM155.499 75.9219C155.499 75.6973 155.508 75.4728 155.499 75.2482C155.418 73.793 154.187 73.1282 152.921 73.8648C152.606 74.0445 152.337 74.287 152.148 74.6014C151.205 76.0926 151.016 77.7365 151.295 79.4343C151.429 80.2427 152.139 80.6649 152.983 80.5392C153.81 80.4134 154.358 79.9283 154.744 79.2187C155.283 78.1766 155.472 77.0717 155.499 75.9219Z" fill="#737270"/>
<path d="M173.007 82.1832C170.985 82.2191 169.683 81.0783 169.503 79.0661C169.332 77.0988 169.683 75.2483 170.958 73.6673C172.135 72.1941 174.623 71.5294 176.393 72.1941C177.444 72.5894 178.136 73.3529 178.306 74.4399C178.666 76.6856 178.315 78.7966 176.815 80.5932C175.953 81.6352 174.614 82.1562 173.007 82.1832ZM176.088 75.922C176.088 75.4909 176.106 75.0597 175.98 74.6285C175.773 73.9278 175.369 73.6224 174.641 73.5955C173.698 73.5685 173.033 74.0266 172.593 74.8082C171.803 76.2185 171.614 77.7456 171.866 79.3266C172 80.18 172.611 80.6022 173.483 80.5303C174.354 80.4584 174.938 79.9464 175.333 79.2098C175.881 78.1857 176.079 77.0808 176.088 75.922Z" fill="#737270"/>
<path d="M117.681 78.2665C117.716 76.6316 118.04 75.0955 119.073 73.775C120.465 71.9874 123.448 71.3765 125.226 72.5174C125.972 72.9935 126.412 73.6852 126.538 74.5206C126.834 76.5687 126.538 78.527 125.316 80.2517C123.987 82.1291 121.507 82.5154 119.809 81.9764C118.534 81.5722 117.761 80.4224 117.69 78.9492C117.672 78.7156 117.681 78.491 117.681 78.2665ZM120.016 78.1227C120.016 78.4641 119.98 78.8144 120.025 79.1558C120.151 80.2068 120.905 80.7278 121.938 80.5032C122.325 80.4224 122.657 80.2337 122.963 79.9732C124.184 78.8953 124.606 75.7063 124.121 74.4397C123.933 73.9636 123.573 73.6762 123.034 73.6133C122.082 73.5145 121.373 73.9187 120.869 74.7002C120.187 75.7333 119.998 76.91 120.016 78.1227Z" fill="#737270"/>
<path d="M93.9296 82.1832C91.7467 82.2191 90.3903 80.8986 90.3544 78.7068C90.3274 77.0269 90.6059 75.437 91.5671 74.0087C92.7618 72.2211 95.5914 71.3946 97.5318 72.2839C98.466 72.7151 99.0499 73.4787 99.2116 74.4758C99.535 76.5239 99.2385 78.4822 98.0168 80.2069C97.0916 81.5094 95.6903 82.1562 93.9296 82.1832ZM96.9928 75.7334C97.0108 75.3292 96.9479 74.9249 96.8221 74.5387C96.6245 73.9458 96.2203 73.6494 95.5914 73.6044C94.6482 73.5326 93.9745 73.9817 93.5074 74.7363C92.663 76.1287 92.5103 77.6647 92.7079 79.2367C92.8337 80.2608 93.6781 80.7459 94.6842 80.4854C95.3848 80.3057 95.843 79.8386 96.1843 79.2367C96.8041 78.1408 96.9479 76.9461 96.9928 75.7334Z" fill="#737270"/>
<path d="M61.3754 73.3979C61.9144 72.8409 62.5162 72.3828 63.2618 72.1493C63.8816 71.9516 64.5194 71.8528 65.1662 71.9786C66.5136 72.2391 67.1424 73.0565 67.0706 74.4309C66.9897 75.8053 66.6394 77.1438 66.4238 78.5002C66.2711 79.4614 66.0645 80.4136 65.9207 81.3747C65.8579 81.77 65.7411 81.9496 65.3099 81.9047C64.8608 81.8598 64.4116 81.8778 63.9625 81.8958C63.657 81.9047 63.5852 81.8329 63.6391 81.5185C63.9804 79.668 64.2948 77.8085 64.6272 75.958C64.6991 75.5448 64.726 75.1226 64.7081 74.7094C64.6811 73.9908 64.3218 73.6584 63.5942 73.6584C62.3904 73.6674 61.3754 74.5297 61.1508 75.7604C60.8095 77.6558 60.4771 79.5602 60.1717 81.4646C60.1088 81.8239 59.992 81.9407 59.6327 81.9047C59.1835 81.8688 58.7344 81.8778 58.2852 81.9047C57.9619 81.9227 57.872 81.8329 57.9349 81.5095C58.1685 80.2339 58.402 78.9493 58.6086 77.6648C58.8871 75.967 59.3093 74.2962 59.3722 72.5714C59.3812 72.302 59.489 72.2031 59.7584 72.2211C60.1447 72.2391 60.54 72.2391 60.9262 72.2211C61.2137 72.2031 61.2855 72.3289 61.2676 72.5894C61.2496 72.8409 61.2676 73.0925 61.2676 73.335C61.3125 73.3619 61.3484 73.3799 61.3754 73.3979Z" fill="#737270"/>
<path d="M131.155 73.4247C131.613 72.9665 132.053 72.5982 132.583 72.3467C133.437 71.9515 134.317 71.8077 135.251 72.0323C136.257 72.2838 136.823 72.9665 136.886 74.0175C136.949 75.0146 136.688 75.9758 136.527 76.946C136.275 78.4461 135.979 79.9463 135.736 81.4554C135.673 81.8147 135.548 81.9315 135.188 81.9046C134.739 81.8776 134.29 81.8686 133.841 81.9046C133.473 81.9315 133.419 81.8058 133.482 81.4734C133.778 79.8744 134.056 78.2665 134.335 76.6585C134.416 76.1734 134.515 75.6884 134.55 75.1943C134.649 73.9187 134.155 73.3528 132.691 73.784C131.676 74.0804 131.137 74.835 130.966 75.877C130.652 77.7455 130.311 79.6139 129.996 81.4914C129.942 81.8058 129.834 81.9225 129.511 81.8956C129.035 81.8686 128.55 81.8776 128.074 81.8956C127.795 81.9046 127.705 81.8327 127.759 81.5452C128.2 79.0929 128.64 76.6316 129.053 74.1702C129.143 73.6403 129.17 73.1013 129.206 72.5623C129.224 72.2928 129.331 72.203 129.601 72.2209C130.005 72.2389 130.409 72.2389 130.814 72.2209C131.074 72.212 131.155 72.3198 131.137 72.5713C131.11 72.8228 131.056 73.0743 131.155 73.4247Z" fill="#737270"/>
<path d="M73.1879 73.9728C72.8286 74.0267 72.2807 73.7751 72.0112 74.0626C71.7686 74.3141 71.8135 74.8531 71.7417 75.2663C71.5261 76.461 71.3195 77.6468 71.1129 78.8415C71.0949 78.9403 71.0769 79.0481 71.068 79.1559C70.9961 80.2339 71.1219 80.6112 72.5052 80.4405C72.5501 80.4315 72.5951 80.4045 72.631 80.4045C72.9274 80.3776 73.3137 80.0273 73.4484 80.1979C73.691 80.5034 73.7449 80.9615 73.8796 81.3567C73.9245 81.5095 73.8167 81.5723 73.7 81.6172C72.5232 82.1472 71.3015 82.3628 70.0349 82.0125C69.1726 81.77 68.7234 81.1232 68.7324 80.1979C68.7414 79.102 69.0198 78.042 69.1995 76.9641C69.6576 74.2692 70.1517 71.5833 70.6188 68.8884C70.6637 68.6189 70.7535 68.5021 71.05 68.5201C71.571 68.5471 72.101 68.5381 72.622 68.5201C72.8645 68.5111 72.9274 68.574 72.8735 68.8255C72.6849 69.7957 72.5322 70.7658 72.3435 71.736C72.2807 72.0863 72.3166 72.257 72.7388 72.239C73.3317 72.2031 73.9335 72.239 74.5354 72.2301C74.8049 72.2211 74.8767 72.3199 74.8318 72.5714C74.7599 72.9487 74.6971 73.335 74.6342 73.7212C74.6072 73.9278 74.4905 73.9907 74.2928 73.9817C73.9515 73.9638 73.6011 73.9728 73.1879 73.9728Z" fill="#737270"/>
<path d="M144.899 82.183C144.782 82.174 144.54 82.174 144.306 82.138C143.084 81.9494 142.5 81.2577 142.536 80.0091C142.563 79.0479 142.797 78.1137 142.959 77.1705C143.435 74.4037 143.947 71.637 144.423 68.8702C144.477 68.5828 144.575 68.5019 144.854 68.5109C145.303 68.5289 145.752 68.5199 146.201 68.5199C146.74 68.5199 146.731 68.5199 146.642 69.0319C146.48 69.9123 146.318 70.7926 146.165 71.6819C146.067 72.2299 146.076 72.2299 146.633 72.2299C147.19 72.2299 147.737 72.2388 148.294 72.2299C148.582 72.2209 148.717 72.2838 148.627 72.6071C148.519 73.0383 148.582 73.6222 148.321 73.8827C148.025 74.1792 147.441 73.9456 146.983 73.9815C146.597 74.0085 146.121 73.8378 145.842 74.0534C145.555 74.269 145.644 74.772 145.573 75.1493C145.339 76.38 145.132 77.6196 144.908 78.8593C144.89 78.9581 144.881 79.0659 144.872 79.1737C144.755 80.3774 145.087 80.6199 146.354 80.4403C146.498 80.4223 146.66 80.3864 146.776 80.3055C147.225 80.0271 147.351 80.2606 147.468 80.6738C147.728 81.617 147.737 81.635 146.785 81.9135C146.21 82.0662 145.626 82.183 144.899 82.183Z" fill="#737270"/>
<path d="M111.347 77.8085C111.347 78.3654 111.365 78.9224 111.626 79.4344C112.048 80.2878 112.982 80.6111 114.114 80.3327C114.581 80.2159 115.03 80.0452 115.426 79.7757C115.605 79.659 115.704 79.6679 115.785 79.8835C115.911 80.2159 116.064 80.5393 116.216 80.8627C116.306 81.0423 116.27 81.1861 116.099 81.2759C114.509 82.1383 112.848 82.5245 111.105 81.8688C109.757 81.3567 109.21 80.18 109.084 78.8235C108.958 77.4671 109.138 76.1466 109.677 74.88C110.629 72.6612 113.36 71.4036 115.65 72.1582C116.432 72.4187 117.043 72.8858 117.483 73.5955C117.609 73.8021 117.618 73.9278 117.393 74.0626C117.034 74.2782 116.692 74.5207 116.342 74.7543C116.225 74.8351 116.108 74.898 116.001 74.7273C115.498 73.9368 114.779 73.6134 113.854 73.7572C112.884 73.9099 112.264 74.5297 111.851 75.3741C111.464 76.1376 111.338 76.9551 111.347 77.8085Z" fill="#737270"/>
<path d="M76.2601 81.8957C76.0176 81.8957 75.7751 81.8777 75.5415 81.8957C75.2001 81.9316 75.1373 81.7879 75.2001 81.4824C75.5235 79.7308 75.829 77.9791 76.1344 76.2274C76.341 75.0776 76.5476 73.9368 76.7272 72.778C76.7901 72.3827 76.9069 72.1581 77.374 72.212C77.8142 72.2569 78.2723 72.23 78.7215 72.221C78.9909 72.212 79.0987 72.2749 79.0448 72.5803C78.5059 75.5986 77.9759 78.6169 77.4459 81.6351C77.4099 81.8418 77.3201 81.9136 77.1225 81.9046C76.8261 81.8867 76.5476 81.8957 76.2601 81.8957Z" fill="#737270"/>
<path d="M102.993 80.5482C102.948 80.629 102.912 80.7009 102.859 80.7817C102.068 82.0303 101.269 83.279 100.505 84.5366C100.155 85.1115 99.8134 84.6444 99.472 84.5815C99.0678 84.5096 99.2924 84.2222 99.3462 84.0156C99.6607 82.8747 100.002 81.7429 100.478 80.6649C100.972 79.56 101.996 79.3983 102.832 80.2877C102.912 80.3595 103.011 80.4134 102.993 80.5482Z" fill="#737270"/>
<path d="M77.1494 69.625C77.1494 68.8165 77.8052 68.1698 78.6316 68.1608C79.2963 68.1518 79.7545 68.592 79.7545 69.2208C79.7545 70.0113 79.0628 70.658 78.2363 70.658C77.5806 70.658 77.1584 70.2538 77.1494 69.625Z" fill="#737270"/>
<path d="M63.6121 17.3082C62.2647 17.3082 60.9082 17.3082 59.5608 17.3082C60.9172 17.1914 62.2647 17.1644 63.6121 17.3082Z" fill="#737270"/>
<path d="M52.2038 46.1615C52.0601 46.1076 51.9343 46.0177 51.9074 46.2962C51.8894 46.5028 52.0601 46.7633 51.7726 46.9071C51.9523 46.2962 51.8265 45.7303 51.4133 45.2183C51.4492 45.2003 51.4941 45.1913 51.5301 45.1733C51.7547 45.5057 51.9792 45.8291 52.2038 46.1615Z" fill="#737270"/>
</svg>
